<?xml version="1.0" encoding="utf-8"?>
<!-- Generator: Adobe Illustrator 21.0.0, SVG Export Plug-In . SVG Version: 6.00 Build 0)  -->
<svg version="1.1" id="Camada_1" xmlns="http://www.w3.org/2000/svg" xmlns:xlink="http://www.w3.org/1999/xlink" x="0px" y="0px"
	 viewBox="0 0 511 380" style="enable-background:new 0 0 511 380;" xml:space="preserve">
<path d="M478.3,64H32.7C14.7,64,0,53.2,0,39.9V26.1C0,12.9,14.7,2,32.7,2h445.5C496.3,2,511,12.9,511,26.1v13.7
	C511,53.2,496.3,64,478.3,64z"/>
<path d="M478.3,380H32.7C14.7,380,0,369.1,0,355.9v-13.7C0,328.9,14.7,318,32.7,318h445.5c18.1,0,32.8,10.9,32.8,24.1v13.7
	C511,369.1,496.3,380,478.3,380z"/>
<path d="M478.3,222H32.7C14.7,222,0,211.2,0,197.9v-13.7C0,170.9,14.7,160,32.7,160h445.5c18.1,0,32.8,10.9,32.8,24.1v13.7
	C511,211.2,496.3,222,478.3,222z"/>
</svg>
